<svg width="128" height="162" xmlns="http://www.w3.org/2000/svg"><g transform="matrix(1 0 0 1 64 81)"  ><g style=""   ><g transform="matrix(1 0 0 1 29.58 57.1)"  ><path style="stroke: rgb(29,33,40); stroke-width: 7; stroke-dasharray: none; stroke-linecap: round; stroke-dashoffset: 0; stroke-linejoin: round; stroke-miterlimit: 4; fill: none; fill-rule: nonzero; opacity: 1;"  transform=" translate(-93.58, -138.1)" d="M 73.5312 117.86 C 86.6246 131.627 99.9913 145.12 113.631 158.34" stroke-linecap="round" /></g><g transform="matrix(1 0 0 1 -19.45 7.22)"  ><path style="stroke: rgb(0,182,233); stroke-width: 7; stroke-dasharray: none; stroke-linecap: round; stroke-dashoffset: 0; stroke-linejoin: round; stroke-miterlimit: 4; fill: rgb(0,182,233); fill-rule: nonzero; opacity: 1;"  transform=" translate(-44.55, -88.22)" d="M 17.7406 119.35 C 9.53057 113.11 3.12057 98.2897 4.27057 83.8097 C 5.27057 71.4597 16.8806 55.1197 29.0106 51.5197 C 36.6006 49.2697 45.5106 47.4298 53.4006 47.9098 C 65.4006 48.6398 72.8906 55.4697 78.6006 65.6997 C 87.3406 81.3697 87.8006 100.15 75.4506 114.25 C 67.0006 123.9 57.9006 127.19 45.1506 128.53 C 39.0006 129.17 26.0006 125.59 17.7406 119.35 Z" stroke-linecap="round" /></g><g transform="matrix(1 0 0 1 -37.88 -8.56)"  ><path style="stroke: rgb(255,255,255); stroke-width: 7; stroke-dasharray: none; stroke-linecap: round; stroke-dashoffset: 0; stroke-linejoin: round; stroke-miterlimit: 4; fill: none; fill-rule: nonzero; opacity: 1;"  transform=" translate(-26.12, -72.44)" d="M 18.8301 80.9399 C 19.9705 77.2608 21.8525 73.8543 24.3601 70.9305 C 26.8677 68.0067 29.9477 65.6276 33.4101 63.9399" stroke-linecap="round" /></g><g transform="matrix(1 0 0 1 -18.77 -20.56)"  ><path style="stroke: rgb(255,255,255); stroke-width: 7; stroke-dasharray: none; stroke-linecap: round; stroke-dashoffset: 0; stroke-linejoin: round; stroke-miterlimit: 4; fill: none; fill-rule: nonzero; opacity: 1;"  transform=" translate(-45.23, -60.44)" d="M 43.8105 60.9399 L 46.6405 59.9399" stroke-linecap="round" /></g><g transform="matrix(1 0 0 1 10.74 -68.29)"  ><path style="stroke: rgb(29,33,40); stroke-width: 7; stroke-dasharray: none; stroke-linecap: round; stroke-dashoffset: 0; stroke-linejoin: round; stroke-miterlimit: 4; fill: none; fill-rule: nonzero; opacity: 1;"  transform=" translate(-74.74, -12.71)" d="M 70.8906 21.71 L 78.5806 3.70996" stroke-linecap="round" /></g><g transform="matrix(1 0 0 1 44.03 -45.8)"  ><path style="stroke: rgb(29,33,40); stroke-width: 7; stroke-dasharray: none; stroke-linecap: round; stroke-dashoffset: 0; stroke-linejoin: round; stroke-miterlimit: 4; fill: none; fill-rule: nonzero; opacity: 1;"  transform=" translate(-108.03, -35.2)" d="M 100.631 40.14 L 115.421 30.27" stroke-linecap="round" /></g><g transform="matrix(1 0 0 1 53.58 -6.16)"  ><path style="stroke: rgb(29,33,40); stroke-width: 7; stroke-dasharray: none; stroke-linecap: round; stroke-dashoffset: 0; stroke-linejoin: round; stroke-miterlimit: 4; fill: none; fill-rule: nonzero; opacity: 1;"  transform=" translate(-117.58, -74.84)" d="M 111.291 74.9 L 123.871 74.77" stroke-linecap="round" /></g></g></g></svg>