<svg width="120" height="122" xmlns="http://www.w3.org/2000/svg"><g transform="matrix(1 0 0 1 60 61)"  ><g style=""   ><g transform="matrix(1 0 0 1 0 0)"  ><path style="stroke: rgb(167,216,32); stroke-width: 7; stroke-dasharray: none; stroke-linecap: round; stroke-dashoffset: 0; stroke-linejoin: round; stroke-miterlimit: 4; fill: rgb(167,216,32); fill-rule: nonzero; opacity: 1;"  transform=" translate(-60, -61)" d="M 22.7793 104.78 C 11.3693 96.1201 2.47932 75.5502 4.06932 55.4402 C 5.41932 38.3002 21.8193 15.3402 38.4293 9.61015 C 48.8193 6.03015 58.4293 3.83015 69.3393 4.49015 C 86.0593 5.49015 99.3393 16.0902 107.269 30.3002 C 119.409 52.0502 120.049 78.1301 102.909 97.7001 C 91.1793 111.1 78.5393 115.7 60.8293 117.53 C 52.2393 118.42 34.1793 113.45 22.7793 104.78 Z" stroke-linecap="round" /></g><g transform="matrix(1 0 0 1 -3.52 -0.01)"  ><path style="stroke: rgb(29,33,40); stroke-width: 7; stroke-dasharray: none; stroke-linecap: round; stroke-dashoffset: 0; stroke-linejoin: round; stroke-miterlimit: 4; fill: none; fill-rule: nonzero; opacity: 1;"  transform=" translate(-56.48, -60.99)" d="M 29.6094 65.0001 C 29.6094 94.7501 44.0994 106.53 55.0394 117.6 C 66.1894 110.67 78.0994 100.06 82.4394 70.0101 C 86.7794 39.9601 74.8994 17.5001 59.9994 4.37012 C 46.8494 16.1301 29.6094 35.2701 29.6094 65.0001 Z" stroke-linecap="round" /></g><g transform="matrix(1 0 0 1 -0.01 0.71)"  ><path style="stroke: rgb(29,33,40); stroke-width: 7; stroke-dasharray: none; stroke-linecap: round; stroke-dashoffset: 0; stroke-linejoin: round; stroke-miterlimit: 4; fill: none; fill-rule: nonzero; opacity: 1;"  transform=" translate(-59.99, -61.71)" d="M 3.88867 60 C 41.1615 64.0623 78.74 64.5077 116.099 61.33" stroke-linecap="round" /></g><g transform="matrix(1 0 0 1 1.54 -33.23)"  ><path style="stroke: rgb(29,33,40); stroke-width: 7; stroke-dasharray: none; stroke-linecap: round; stroke-dashoffset: 0; stroke-linejoin: round; stroke-miterlimit: 4; fill: none; fill-rule: nonzero; opacity: 1;"  transform=" translate(-61.54, -27.77)" d="M 16.7988 26.7202 C 37.2588 29.0802 58.0988 28.9202 78.7988 28.7202 L 98.3788 28.5502 L 106.289 28.4802" stroke-linecap="round" /></g><g transform="matrix(1 0 0 1 -0.56 32.78)"  ><path style="stroke: rgb(29,33,40); stroke-width: 7; stroke-dasharray: none; stroke-linecap: round; stroke-dashoffset: 0; stroke-linejoin: round; stroke-miterlimit: 4; fill: none; fill-rule: nonzero; opacity: 1;"  transform=" translate(-59.44, -93.78)" d="M 13.1699 93.7199 C 42.5699 93.0899 76.3099 93.2599 105.71 94.2199" stroke-linecap="round" /></g></g></g></svg>