<svg width="170" height="184" xmlns="http://www.w3.org/2000/svg"><g transform="matrix(1 0 0 1 85 92)"  ><g style=""   ><g transform="matrix(1 0 0 1 64.97 -35.13)"  ><path style="stroke: rgb(51,51,51); stroke-width: 7; stroke-dasharray: none; stroke-linecap: round; stroke-dashoffset: 0; stroke-linejoin: round; stroke-miterlimit: 4; fill: none; fill-rule: nonzero; opacity: 1;"  transform=" translate(-149.97, -56.87)" d="M 141.939 61.9403 C 147.553 58.9906 152.923 55.6 157.999 51.8003" stroke-linecap="round" /></g><g transform="matrix(1 0 0 1 73.7 -40.54)"  ><path style="stroke: rgb(51,51,51); stroke-width: 7; stroke-dasharray: none; stroke-linecap: round; stroke-dashoffset: 0; stroke-linejoin: round; stroke-miterlimit: 4; fill: none; fill-rule: nonzero; opacity: 1;"  transform=" translate(-158.7, -51.46)" d="M 151.15 39.2803 C 155.727 47.6748 160.768 55.8075 166.25 63.6403" stroke-linecap="round" /></g><g transform="matrix(1 0 0 1 -11.52 -81.32)"  ><path style="stroke: rgb(51,51,51); stroke-width: 7; stroke-dasharray: none; stroke-linecap: round; stroke-dashoffset: 0; stroke-linejoin: round; stroke-miterlimit: 4; fill: none; fill-rule: nonzero; opacity: 1;"  transform=" translate(-73.48, -10.68)" d="M 95.8903 17.5101 C 95.8903 17.5101 96.6303 9.11009 95.5603 4.67009 C 89.0603 2.22009 77.5603 4.81009 70.2403 4.94009 C 63.7459 5.07369 57.2634 5.55438 50.8203 6.3801 C 50.88 10.1779 51.1404 13.9698 51.6003 17.7401 C 65.5503 17.5801 79.7103 15.9001 95.8903 17.5101 Z" stroke-linecap="round" /></g><g transform="matrix(1 0 0 1 -10.11 -68.47)"  ><path style="stroke: rgb(51,51,51); stroke-width: 7; stroke-dasharray: none; stroke-linecap: round; stroke-dashoffset: 0; stroke-linejoin: round; stroke-miterlimit: 4; fill: none; fill-rule: nonzero; opacity: 1;"  transform=" translate(-74.89, -23.53)" d="M 74.8887 29.3102 L 74.8887 17.7402" stroke-linecap="round" /></g><g transform="matrix(1 0 0 1 -6.11 12.85)"  ><path style="stroke: rgb(251,187,82); stroke-width: 7; stroke-dasharray: none; stroke-linecap: round; stroke-dashoffset: 0; stroke-linejoin: round; stroke-miterlimit: 4; fill: rgb(251,187,82); fill-rule: nonzero; opacity: 1;"  transform=" translate(-78.89, -104.85)" d="M 153.78 101.42 C 152.27 81.9503 146.34 63.1203 131.59 49.4203 C 117.74 36.5503 98.8196 31.3103 76.2396 29.3203 C 55.3896 29.3203 34.4796 38.5603 21.5296 55.2403 C 14.3496 64.4803 8.82964 73.0703 6.43964 84.4303 C 4.12449 95.1964 3.30344 106.23 3.99964 117.22 C 4.99964 133.05 11.9996 146.62 22.7196 158.12 C 29.9696 165.85 38.0796 170.99 48.2396 175.12 C 60.6138 180.116 74.1292 181.591 87.2896 179.38 C 127.08 173.19 157 142.8 153.78 101.42 Z M 122.73 142.42 C 110.34 156.57 96.9896 161.42 78.2796 163.36 C 69.2096 164.31 50.1196 159.05 38.0696 149.9 C 26.0196 140.75 16.6296 119.05 18.3096 97.8003 C 19.7396 79.6903 36.3996 57.4003 53.6096 50.4403 C 64.3696 46.0903 80.0996 45.5003 91.3796 48.1403 C 108.62 52.1403 120.97 59.2303 129.38 74.2403 C 142.17 97.2203 140.85 121.78 122.73 142.46 L 122.73 142.42 Z" stroke-linecap="round" /></g><g transform="matrix(1 0 0 1 11.68 11.63)"  ><path style="stroke: rgb(51,51,51); stroke-width: 7; stroke-dasharray: none; stroke-linecap: round; stroke-dashoffset: 0; stroke-linejoin: round; stroke-miterlimit: 4; fill: none; fill-rule: nonzero; opacity: 1;"  transform=" translate(-96.68, -103.63)" d="M 120.53 105 C 120.53 105 88.2301 102.63 72.8301 102.27" stroke-linecap="round" /></g><g transform="matrix(1 0 0 1 -10.12 10.43)"  ><path style="stroke: rgb(51,51,51); stroke-width: 7; stroke-dasharray: none; stroke-linecap: round; stroke-dashoffset: 0; stroke-linejoin: round; stroke-miterlimit: 4; fill: rgb(51,51,51); fill-rule: nonzero; opacity: 1;"  transform=" translate(-74.88, -102.43)" d="M 67.6998 109.05 C 59.9098 101.76 67.9398 90.8502 76.2798 92.4002 C 83.2798 93.7202 89.2798 105.84 81.7198 111.06 C 78.2498 113.45 71.6498 113.27 67.6998 109.05 Z" stroke-linecap="round" /></g></g></g></svg>